<?xml version="1.0" encoding="utf-8"?>
<!-- Generator: Adobe Illustrator 26.1.0, SVG Export Plug-In . SVG Version: 6.00 Build 0)  -->
<svg version="1.1" id="Layer_1" xmlns="http://www.w3.org/2000/svg" xmlns:xlink="http://www.w3.org/1999/xlink" x="0px" y="0px"
	 viewBox="0 0 1622.8 299.4" style="enable-background:new 0 0 1622.8 299.4;" xml:space="preserve">
<g id="a">
</g>
<g id="b">
	<g id="c">
		<g>
			<path d="M506.9,48.4L467.6,9.1c-12.2-12.2-32-12.2-44.2,0l-39.3,39.3l32.1,32.1l29.3-29.3l29.3,29.3L506.9,48.4L506.9,48.4z"/>
			<path d="M677.9,121.4H488.1c-17.2,0-31.2,14-31.2,31.2v146.8h45.5V166.9h58v83.4h45.5v-83.4h58v132.6h45.5V152.7
				C709.1,135.4,695.1,121.4,677.9,121.4L677.9,121.4z"/>
			<path d="M1134.8,121.4H991.5c-17.2,0-31.2,14-31.2,31.2v146.8h45.5V166.9h114.8v132.6h45.4V152.7
				C1166,135.4,1152,121.4,1134.8,121.4L1134.8,121.4z"/>
			<polygon points="388.7,254 273.9,254 273.9,121.4 228.4,121.4 228.4,299.4 434.1,299.4 434.1,121.4 388.7,121.4 			"/>
			<path d="M174.5,121.4h-129V0H0v299.4h45.5V166.9h114.8v132.6h45.4V152.7C205.7,135.4,191.7,121.4,174.5,121.4L174.5,121.4z"/>
			<path d="M1622.8,176.2v-23.5c0-17.2-14-31.2-31.2-31.2h-143.2c-17.2,0-31.2,14-31.2,31.2v36.6c0,16.3,12.5,29.8,28.6,31.1
				l131.7,16V254h-114.8v-14.1h-45.4v59.5h205.7v-75.6c0-16.3-12.5-29.8-28.6-31.1l-131.7-16v-9.8h114.8v9.3L1622.8,176.2
				L1622.8,176.2z"/>
			<path d="M906.3,121.4H763.1c-17.2,0-31.2,14-31.2,31.2v23.5h45.5v-9.3h114.8v17.8h-129c-17.2,0-31.2,14-31.2,31.2v83.6h205.7
				V152.7C937.6,135.4,923.5,121.4,906.3,121.4L906.3,121.4z M892.1,254H777.3v-23.9h114.8V254z"/>
			<path d="M1363.2,121.4H1220c-17.2,0-31.2,14-31.2,31.2v23.5h45.4v-9.3H1349v17.8h-129c-17.2,0-31.2,14-31.2,31.2v83.6h205.7
				V152.7C1394.4,135.4,1380.4,121.4,1363.2,121.4L1363.2,121.4z M1349,254h-114.8v-23.9H1349L1349,254L1349,254z"/>
		</g>
	</g>
</g>
</svg>
